<?xml version="1.0" encoding="UTF-8"?>
<svg xmlns="http://www.w3.org/2000/svg" xmlns:xlink="http://www.w3.org/1999/xlink" width="30px" height="30px" viewBox="0 0 30 21" version="1.1">
<defs>
<clipPath id="clip1">
  <path d="M 9 8 L 21 8 L 21 16 L 9 16 Z M 9 8 "/>
</clipPath>
<clipPath id="clip2">
  <path d="M 20.25 10.5 C 20.25 13.398438 17.898438 15.75 15 15.75 C 12.101562 15.75 9.75 13.398438 9.75 10.5 C 9.75 7.601562 12.101562 5.25 15 5.25 C 17.898438 5.25 20.25 7.601562 20.25 10.5 Z M 20.25 10.5 "/>
</clipPath>
<clipPath id="clip3">
  <path d="M 16 9 L 18 9 L 18 10 L 16 10 Z M 16 9 "/>
</clipPath>
<clipPath id="clip4">
  <path d="M 16.628906 9.789062 L 16.828125 9.332031 L 17.242188 9.511719 L 17.042969 9.96875 Z M 16.96875 9.574219 L 16.933594 9.652344 L 17.140625 9.742188 L 17.175781 9.664062 Z M 16.96875 9.574219 "/>
</clipPath>
</defs>
<g id="surface1">
<rect x="0" y="0" width="30" height="21" style="fill:rgb(0%,60.784314%,22.745098%);fill-opacity:1;stroke:none;"/>
<path style=" stroke:none;fill-rule:nonzero;fill:rgb(99.607843%,87.45098%,0%);fill-opacity:1;" d="M 2.550781 10.5 L 15 18.449219 L 27.449219 10.5 L 15 2.550781 Z M 2.550781 10.5 "/>
<path style=" stroke:none;fill-rule:nonzero;fill:rgb(0%,15.294118%,46.27451%);fill-opacity:1;" d="M 20.25 10.5 C 20.25 13.398438 17.898438 15.75 15 15.75 C 12.101562 15.75 9.75 13.398438 9.75 10.5 C 9.75 7.601562 12.101562 5.25 15 5.25 C 17.898438 5.25 20.25 7.601562 20.25 10.5 Z M 20.25 10.5 "/>
<g clip-path="url(#clip1)" clip-rule="nonzero">
<g clip-path="url(#clip2)" clip-rule="nonzero">
<path style=" stroke:none;fill-rule:nonzero;fill:rgb(100%,100%,100%);fill-opacity:1;" d="M -0.75 21 C -0.75 13.957031 4.957031 8.25 12 8.25 C 19.042969 8.25 24.75 13.957031 24.75 21 L 24 21 C 24 14.371094 18.628906 9 12 9 C 5.371094 9 0 14.371094 0 21 Z M -0.75 21 "/>
</g>
</g>
<path style=" stroke:none;fill-rule:evenodd;fill:rgb(0%,60.784314%,22.745098%);fill-opacity:1;" d="M 10.523438 8.964844 C 10.644531 8.949219 10.730469 8.828125 10.714844 8.691406 C 10.699219 8.554688 10.585938 8.453125 10.460938 8.46875 C 10.339844 8.484375 10.25 8.609375 10.269531 8.746094 C 10.285156 8.882812 10.398438 8.980469 10.523438 8.964844 M 10.511719 8.875 C 10.582031 8.863281 10.632812 8.789062 10.621094 8.699219 C 10.613281 8.613281 10.546875 8.550781 10.472656 8.5625 C 10.398438 8.570312 10.351562 8.648438 10.359375 8.734375 C 10.371094 8.820312 10.4375 8.882812 10.511719 8.875 "/>
<path style=" stroke:none;fill-rule:evenodd;fill:rgb(0%,60.784314%,22.745098%);fill-opacity:1;" d="M 10.929688 8.921875 L 11.023438 8.914062 L 11.007812 8.726562 L 11.207031 8.714844 C 11.296875 8.707031 11.359375 8.632812 11.355469 8.546875 C 11.347656 8.460938 11.273438 8.394531 11.1875 8.402344 L 10.902344 8.421875 Z M 11.003906 8.636719 L 11.195312 8.621094 C 11.230469 8.621094 11.257812 8.589844 11.253906 8.554688 C 11.253906 8.519531 11.222656 8.492188 11.1875 8.496094 L 10.992188 8.507812 Z M 11.003906 8.636719 "/>
<path style=" stroke:none;fill-rule:nonzero;fill:rgb(0%,60.784314%,22.745098%);fill-opacity:1;" d="M 11.355469 8.890625 C 11.347656 8.820312 11.335938 8.664062 11.230469 8.671875 L 11.09375 8.679688 C 11.253906 8.667969 11.261719 8.824219 11.269531 8.898438 "/>
<path style=" stroke:none;fill-rule:evenodd;fill:rgb(0%,60.784314%,22.745098%);fill-opacity:1;" d="M 11.5625 8.878906 L 11.800781 8.875 C 11.917969 8.875 12.011719 8.777344 12.007812 8.660156 L 12.007812 8.585938 C 12.007812 8.46875 11.910156 8.375 11.789062 8.375 L 11.554688 8.378906 Z M 11.65625 8.785156 L 11.789062 8.785156 C 11.867188 8.78125 11.925781 8.722656 11.921875 8.644531 L 11.921875 8.601562 C 11.921875 8.527344 11.859375 8.46875 11.785156 8.46875 L 11.648438 8.472656 Z M 11.65625 8.785156 "/>
<path style=" stroke:none;fill-rule:nonzero;fill:rgb(0%,60.784314%,22.745098%);fill-opacity:1;" d="M 12.199219 8.875 L 12.648438 8.890625 L 12.652344 8.796875 L 12.289062 8.785156 L 12.292969 8.65625 L 12.578125 8.667969 L 12.582031 8.582031 L 12.292969 8.570312 L 12.296875 8.46875 L 12.640625 8.484375 L 12.644531 8.390625 L 12.214844 8.375 Z M 12.199219 8.875 "/>
<path style=" stroke:none;fill-rule:nonzero;fill:rgb(0%,60.784314%,22.745098%);fill-opacity:1;" d="M 12.832031 8.902344 L 12.917969 8.910156 L 12.949219 8.566406 L 13.019531 8.917969 L 13.097656 8.925781 L 13.226562 8.589844 L 13.195312 8.933594 L 13.28125 8.941406 L 13.324219 8.441406 L 13.199219 8.433594 L 13.070312 8.765625 L 13 8.414062 L 12.875 8.402344 Z M 12.832031 8.902344 "/>
<path style=" stroke:none;fill-rule:nonzero;fill:rgb(0%,60.784314%,22.745098%);fill-opacity:1;" d="M 13.867188 9.019531 L 14.238281 9.082031 L 14.253906 8.996094 L 13.96875 8.949219 L 13.988281 8.835938 L 14.21875 8.875 L 14.234375 8.792969 L 14 8.75 L 14.015625 8.675781 L 14.292969 8.722656 L 14.304688 8.636719 L 13.945312 8.574219 Z M 13.867188 9.019531 "/>
<path style=" stroke:none;fill-rule:evenodd;fill:rgb(0%,60.784314%,22.745098%);fill-opacity:1;" d="M 14.816406 9.203125 L 14.90625 9.226562 L 14.953125 9.046875 L 15.148438 9.097656 C 15.230469 9.121094 15.316406 9.070312 15.339844 8.984375 C 15.359375 8.902344 15.3125 8.816406 15.226562 8.792969 L 14.949219 8.722656 Z M 14.976562 8.957031 L 15.164062 9.007812 C 15.199219 9.015625 15.234375 8.996094 15.242188 8.960938 C 15.25 8.925781 15.230469 8.890625 15.195312 8.882812 L 15.011719 8.832031 Z M 14.976562 8.957031 "/>
<path style=" stroke:none;fill-rule:evenodd;fill:rgb(0%,60.784314%,22.745098%);fill-opacity:1;" d="M 15.429688 9.367188 L 15.519531 9.394531 L 15.574219 9.21875 L 15.765625 9.28125 C 15.847656 9.304688 15.9375 9.257812 15.964844 9.175781 C 15.988281 9.09375 15.945312 9.003906 15.859375 8.980469 L 15.589844 8.894531 Z M 15.605469 9.128906 L 15.789062 9.1875 C 15.820312 9.199219 15.859375 9.179688 15.867188 9.148438 C 15.878906 9.113281 15.859375 9.078125 15.828125 9.066406 L 15.640625 9.007812 Z M 15.605469 9.128906 "/>
<path style=" stroke:none;fill-rule:nonzero;fill:rgb(0%,60.784314%,22.745098%);fill-opacity:1;" d="M 15.835938 9.496094 C 15.859375 9.429688 15.90625 9.277344 15.804688 9.246094 L 15.675781 9.207031 C 15.824219 9.253906 15.777344 9.402344 15.753906 9.46875 "/>
<path style=" stroke:none;fill-rule:evenodd;fill:rgb(0%,60.784314%,22.745098%);fill-opacity:1;" d="M 16.246094 9.644531 C 16.363281 9.6875 16.496094 9.617188 16.542969 9.488281 C 16.59375 9.359375 16.539062 9.21875 16.421875 9.175781 C 16.304688 9.132812 16.171875 9.199219 16.125 9.328125 C 16.074219 9.460938 16.128906 9.597656 16.246094 9.644531 M 16.277344 9.554688 C 16.347656 9.582031 16.425781 9.535156 16.457031 9.453125 C 16.488281 9.375 16.457031 9.285156 16.390625 9.261719 C 16.320312 9.234375 16.242188 9.28125 16.210938 9.363281 C 16.179688 9.445312 16.210938 9.53125 16.277344 9.554688 "/>
<g clip-path="url(#clip3)" clip-rule="nonzero">
<g clip-path="url(#clip4)" clip-rule="nonzero">
<path style=" stroke:none;fill-rule:evenodd;fill:rgb(0%,60.784314%,22.745098%);fill-opacity:1;" d="M 16.835938 9.878906 C 16.949219 9.929688 17.085938 9.867188 17.140625 9.742188 C 17.195312 9.613281 17.148438 9.472656 17.035156 9.421875 C 16.921875 9.371094 16.785156 9.433594 16.726562 9.5625 C 16.671875 9.6875 16.722656 9.832031 16.835938 9.878906 M 16.871094 9.796875 C 16.9375 9.824219 17.019531 9.785156 17.054688 9.703125 C 17.089844 9.625 17.0625 9.535156 16.996094 9.507812 C 16.929688 9.476562 16.847656 9.519531 16.8125 9.597656 C 16.777344 9.679688 16.804688 9.765625 16.871094 9.796875 "/>
</g>
</g>
<path style=" stroke:none;fill-rule:nonzero;fill:rgb(0%,60.784314%,22.745098%);fill-opacity:1;" d="M 16.96875 9.664062 L 17.140625 9.742188 L 17.113281 9.804688 L 16.9375 9.730469 Z M 16.96875 9.664062 "/>
<path style=" stroke:none;fill-rule:nonzero;fill:rgb(0%,60.784314%,22.745098%);fill-opacity:1;" d="M 17.074219 9.710938 L 17.140625 9.742188 L 17.042969 9.96875 L 16.976562 9.941406 Z M 17.074219 9.710938 "/>
<path style=" stroke:none;fill-rule:evenodd;fill:rgb(0%,60.784314%,22.745098%);fill-opacity:1;" d="M 17.207031 10.046875 L 17.292969 10.089844 L 17.375 9.921875 L 17.554688 10.011719 C 17.632812 10.050781 17.726562 10.019531 17.765625 9.941406 C 17.804688 9.863281 17.773438 9.769531 17.695312 9.730469 L 17.4375 9.605469 Z M 17.417969 9.839844 L 17.589844 9.925781 C 17.621094 9.941406 17.660156 9.929688 17.675781 9.898438 C 17.691406 9.867188 17.679688 9.828125 17.644531 9.8125 L 17.472656 9.726562 Z M 17.417969 9.839844 "/>
<path style=" stroke:none;fill-rule:nonzero;fill:rgb(0%,60.784314%,22.745098%);fill-opacity:1;" d="M 17.589844 10.238281 C 17.621094 10.175781 17.691406 10.035156 17.59375 9.984375 L 17.472656 9.925781 C 17.613281 9.996094 17.542969 10.136719 17.511719 10.199219 "/>
<path style=" stroke:none;fill-rule:nonzero;fill:rgb(0%,60.784314%,22.745098%);fill-opacity:1;" d="M 17.773438 10.335938 L 18.167969 10.558594 L 18.210938 10.476562 L 17.894531 10.296875 L 17.957031 10.1875 L 18.207031 10.328125 L 18.25 10.25 L 18 10.109375 L 18.050781 10.023438 L 18.347656 10.191406 L 18.394531 10.113281 L 18.019531 9.902344 Z M 17.773438 10.335938 "/>
<path style=" stroke:none;fill-rule:nonzero;fill:rgb(0%,60.784314%,22.745098%);fill-opacity:1;" d="M 18.503906 10.582031 C 18.476562 10.625 18.503906 10.671875 18.566406 10.707031 C 18.625 10.746094 18.667969 10.746094 18.683594 10.71875 C 18.738281 10.632812 18.421875 10.507812 18.519531 10.359375 C 18.601562 10.230469 18.746094 10.328125 18.800781 10.363281 C 18.855469 10.398438 18.941406 10.488281 18.875 10.589844 L 18.78125 10.53125 C 18.8125 10.488281 18.78125 10.445312 18.730469 10.414062 C 18.683594 10.382812 18.648438 10.371094 18.621094 10.414062 C 18.574219 10.484375 18.882812 10.613281 18.789062 10.765625 C 18.71875 10.875 18.597656 10.824219 18.515625 10.773438 C 18.445312 10.730469 18.34375 10.625 18.410156 10.519531 Z M 18.503906 10.582031 "/>
<path style=" stroke:none;fill-rule:nonzero;fill:rgb(0%,60.784314%,22.745098%);fill-opacity:1;" d="M 19.039062 10.9375 C 19.011719 10.976562 19.035156 11.023438 19.09375 11.066406 C 19.152344 11.109375 19.195312 11.109375 19.210938 11.082031 C 19.273438 11 18.960938 10.859375 19.066406 10.714844 C 19.15625 10.589844 19.296875 10.695312 19.347656 10.734375 C 19.402344 10.773438 19.484375 10.867188 19.410156 10.964844 L 19.320312 10.902344 C 19.351562 10.859375 19.324219 10.8125 19.277344 10.78125 C 19.230469 10.746094 19.195312 10.730469 19.164062 10.773438 C 19.113281 10.839844 19.417969 10.988281 19.3125 11.132812 C 19.238281 11.238281 19.121094 11.183594 19.042969 11.128906 C 18.972656 11.082031 18.875 10.972656 18.949219 10.871094 Z M 19.039062 10.9375 "/>
<path style=" stroke:none;fill-rule:evenodd;fill:rgb(0%,60.784314%,22.745098%);fill-opacity:1;" d="M 19.546875 11.511719 C 19.644531 11.589844 19.792969 11.5625 19.878906 11.457031 C 19.964844 11.347656 19.957031 11.195312 19.859375 11.121094 C 19.761719 11.042969 19.613281 11.066406 19.527344 11.175781 C 19.441406 11.285156 19.449219 11.433594 19.546875 11.511719 M 19.605469 11.4375 C 19.664062 11.484375 19.753906 11.464844 19.808594 11.398438 C 19.859375 11.328125 19.859375 11.238281 19.800781 11.191406 C 19.746094 11.148438 19.652344 11.164062 19.601562 11.234375 C 19.546875 11.300781 19.546875 11.394531 19.605469 11.4375 "/>
<path style=" stroke:none;fill-rule:nonzero;fill:rgb(100%,100%,100%);fill-opacity:1;" d="M 10.714844 9.332031 L 10.644531 9.546875 L 10.75 9.582031 "/>
<path style=" stroke:none;fill-rule:nonzero;fill:rgb(100%,100%,100%);fill-opacity:1;" d="M 10.714844 9.332031 L 10.785156 9.546875 L 10.675781 9.582031 "/>
<path style=" stroke:none;fill-rule:nonzero;fill:rgb(100%,100%,100%);fill-opacity:1;" d="M 10.929688 9.488281 L 10.703125 9.488281 L 10.703125 9.601562 "/>
<path style=" stroke:none;fill-rule:nonzero;fill:rgb(100%,100%,100%);fill-opacity:1;" d="M 10.929688 9.488281 L 10.746094 9.621094 L 10.679688 9.527344 "/>
<path style=" stroke:none;fill-rule:nonzero;fill:rgb(100%,100%,100%);fill-opacity:1;" d="M 10.5 9.488281 L 10.683594 9.621094 L 10.75 9.527344 "/>
<path style=" stroke:none;fill-rule:nonzero;fill:rgb(100%,100%,100%);fill-opacity:1;" d="M 10.5 9.488281 L 10.726562 9.488281 L 10.726562 9.601562 "/>
<path style=" stroke:none;fill-rule:nonzero;fill:rgb(100%,100%,100%);fill-opacity:1;" d="M 10.847656 9.738281 L 10.777344 9.523438 L 10.671875 9.558594 "/>
<path style=" stroke:none;fill-rule:nonzero;fill:rgb(100%,100%,100%);fill-opacity:1;" d="M 10.847656 9.738281 L 10.664062 9.605469 L 10.730469 9.515625 "/>
<path style=" stroke:none;fill-rule:nonzero;fill:rgb(100%,100%,100%);fill-opacity:1;" d="M 10.582031 9.738281 L 10.765625 9.605469 L 10.699219 9.515625 "/>
<path style=" stroke:none;fill-rule:nonzero;fill:rgb(100%,100%,100%);fill-opacity:1;" d="M 10.582031 9.738281 L 10.652344 9.523438 L 10.757812 9.558594 "/>
<path style=" stroke:none;fill-rule:nonzero;fill:rgb(100%,100%,100%);fill-opacity:1;" d="M 11.179688 11.539062 L 11.109375 11.753906 L 11.214844 11.789062 "/>
<path style=" stroke:none;fill-rule:nonzero;fill:rgb(100%,100%,100%);fill-opacity:1;" d="M 11.179688 11.539062 L 11.25 11.753906 L 11.140625 11.789062 "/>
<path style=" stroke:none;fill-rule:nonzero;fill:rgb(100%,100%,100%);fill-opacity:1;" d="M 11.390625 11.695312 L 11.167969 11.695312 L 11.167969 11.808594 "/>
<path style=" stroke:none;fill-rule:nonzero;fill:rgb(100%,100%,100%);fill-opacity:1;" d="M 11.390625 11.695312 L 11.210938 11.828125 L 11.144531 11.734375 "/>
<path style=" stroke:none;fill-rule:nonzero;fill:rgb(100%,100%,100%);fill-opacity:1;" d="M 10.964844 11.695312 L 11.148438 11.828125 L 11.210938 11.734375 "/>
<path style=" stroke:none;fill-rule:nonzero;fill:rgb(100%,100%,100%);fill-opacity:1;" d="M 10.964844 11.695312 L 11.191406 11.695312 L 11.191406 11.808594 "/>
<path style=" stroke:none;fill-rule:nonzero;fill:rgb(100%,100%,100%);fill-opacity:1;" d="M 11.3125 11.945312 L 11.242188 11.730469 L 11.132812 11.765625 "/>
<path style=" stroke:none;fill-rule:nonzero;fill:rgb(100%,100%,100%);fill-opacity:1;" d="M 11.3125 11.945312 L 11.128906 11.8125 L 11.195312 11.722656 "/>
<path style=" stroke:none;fill-rule:nonzero;fill:rgb(100%,100%,100%);fill-opacity:1;" d="M 11.046875 11.945312 L 11.226562 11.8125 L 11.164062 11.722656 "/>
<path style=" stroke:none;fill-rule:nonzero;fill:rgb(100%,100%,100%);fill-opacity:1;" d="M 11.046875 11.945312 L 11.117188 11.730469 L 11.222656 11.765625 "/>
<path style=" stroke:none;fill-rule:nonzero;fill:rgb(100%,100%,100%);fill-opacity:1;" d="M 10.535156 12.046875 L 10.476562 12.226562 L 10.566406 12.253906 "/>
<path style=" stroke:none;fill-rule:nonzero;fill:rgb(100%,100%,100%);fill-opacity:1;" d="M 10.535156 12.046875 L 10.59375 12.226562 L 10.503906 12.253906 "/>
<path style=" stroke:none;fill-rule:nonzero;fill:rgb(100%,100%,100%);fill-opacity:1;" d="M 10.714844 12.179688 L 10.527344 12.179688 L 10.527344 12.273438 "/>
<path style=" stroke:none;fill-rule:nonzero;fill:rgb(100%,100%,100%);fill-opacity:1;" d="M 10.714844 12.179688 L 10.5625 12.289062 L 10.507812 12.210938 "/>
<path style=" stroke:none;fill-rule:nonzero;fill:rgb(100%,100%,100%);fill-opacity:1;" d="M 10.355469 12.179688 L 10.507812 12.289062 L 10.5625 12.210938 "/>
<path style=" stroke:none;fill-rule:nonzero;fill:rgb(100%,100%,100%);fill-opacity:1;" d="M 10.355469 12.179688 L 10.542969 12.179688 L 10.542969 12.273438 "/>
<path style=" stroke:none;fill-rule:nonzero;fill:rgb(100%,100%,100%);fill-opacity:1;" d="M 10.644531 12.386719 L 10.589844 12.210938 L 10.5 12.238281 "/>
<path style=" stroke:none;fill-rule:nonzero;fill:rgb(100%,100%,100%);fill-opacity:1;" d="M 10.644531 12.386719 L 10.496094 12.277344 L 10.550781 12.203125 "/>
<path style=" stroke:none;fill-rule:nonzero;fill:rgb(100%,100%,100%);fill-opacity:1;" d="M 10.425781 12.386719 L 10.578125 12.277344 L 10.523438 12.203125 "/>
<path style=" stroke:none;fill-rule:nonzero;fill:rgb(100%,100%,100%);fill-opacity:1;" d="M 10.425781 12.386719 L 10.484375 12.210938 L 10.574219 12.238281 "/>
<path style=" stroke:none;fill-rule:nonzero;fill:rgb(100%,100%,100%);fill-opacity:1;" d="M 11.691406 11.335938 L 11.660156 11.4375 L 11.710938 11.453125 "/>
<path style=" stroke:none;fill-rule:nonzero;fill:rgb(100%,100%,100%);fill-opacity:1;" d="M 11.691406 11.335938 L 11.726562 11.4375 L 11.675781 11.453125 "/>
<path style=" stroke:none;fill-rule:nonzero;fill:rgb(100%,100%,100%);fill-opacity:1;" d="M 11.792969 11.410156 L 11.6875 11.410156 L 11.6875 11.464844 "/>
<path style=" stroke:none;fill-rule:nonzero;fill:rgb(100%,100%,100%);fill-opacity:1;" d="M 11.792969 11.410156 L 11.707031 11.472656 L 11.675781 11.429688 "/>
<path style=" stroke:none;fill-rule:nonzero;fill:rgb(100%,100%,100%);fill-opacity:1;" d="M 11.589844 11.410156 L 11.675781 11.472656 L 11.710938 11.429688 "/>
<path style=" stroke:none;fill-rule:nonzero;fill:rgb(100%,100%,100%);fill-opacity:1;" d="M 11.589844 11.410156 L 11.699219 11.410156 L 11.699219 11.464844 "/>
<path style=" stroke:none;fill-rule:nonzero;fill:rgb(100%,100%,100%);fill-opacity:1;" d="M 11.753906 11.53125 L 11.722656 11.425781 L 11.671875 11.445312 "/>
<path style=" stroke:none;fill-rule:nonzero;fill:rgb(100%,100%,100%);fill-opacity:1;" d="M 11.753906 11.53125 L 11.667969 11.464844 L 11.699219 11.421875 "/>
<path style=" stroke:none;fill-rule:nonzero;fill:rgb(100%,100%,100%);fill-opacity:1;" d="M 11.628906 11.53125 L 11.714844 11.464844 L 11.683594 11.421875 "/>
<path style=" stroke:none;fill-rule:nonzero;fill:rgb(100%,100%,100%);fill-opacity:1;" d="M 11.628906 11.53125 L 11.664062 11.425781 L 11.714844 11.445312 "/>
<path style=" stroke:none;fill-rule:nonzero;fill:rgb(100%,100%,100%);fill-opacity:1;" d="M 12.269531 12.097656 L 12.214844 12.277344 L 12.300781 12.304688 "/>
<path style=" stroke:none;fill-rule:nonzero;fill:rgb(100%,100%,100%);fill-opacity:1;" d="M 12.269531 12.097656 L 12.328125 12.277344 L 12.238281 12.304688 "/>
<path style=" stroke:none;fill-rule:nonzero;fill:rgb(100%,100%,100%);fill-opacity:1;" d="M 12.449219 12.226562 L 12.261719 12.226562 L 12.261719 12.320312 "/>
<path style=" stroke:none;fill-rule:nonzero;fill:rgb(100%,100%,100%);fill-opacity:1;" d="M 12.449219 12.226562 L 12.296875 12.339844 L 12.242188 12.261719 "/>
<path style=" stroke:none;fill-rule:nonzero;fill:rgb(100%,100%,100%);fill-opacity:1;" d="M 12.09375 12.226562 L 12.246094 12.339844 L 12.300781 12.261719 "/>
<path style=" stroke:none;fill-rule:nonzero;fill:rgb(100%,100%,100%);fill-opacity:1;" d="M 12.09375 12.226562 L 12.28125 12.226562 L 12.28125 12.320312 "/>
<path style=" stroke:none;fill-rule:nonzero;fill:rgb(100%,100%,100%);fill-opacity:1;" d="M 12.382812 12.4375 L 12.324219 12.257812 L 12.234375 12.289062 "/>
<path style=" stroke:none;fill-rule:nonzero;fill:rgb(100%,100%,100%);fill-opacity:1;" d="M 12.382812 12.4375 L 12.230469 12.328125 L 12.285156 12.25 "/>
<path style=" stroke:none;fill-rule:nonzero;fill:rgb(100%,100%,100%);fill-opacity:1;" d="M 12.160156 12.4375 L 12.3125 12.328125 L 12.257812 12.25 "/>
<path style=" stroke:none;fill-rule:nonzero;fill:rgb(100%,100%,100%);fill-opacity:1;" d="M 12.160156 12.4375 L 12.21875 12.257812 L 12.308594 12.289062 "/>
<path style=" stroke:none;fill-rule:nonzero;fill:rgb(100%,100%,100%);fill-opacity:1;" d="M 12.113281 12.65625 L 12.066406 12.800781 L 12.140625 12.824219 "/>
<path style=" stroke:none;fill-rule:nonzero;fill:rgb(100%,100%,100%);fill-opacity:1;" d="M 12.113281 12.65625 L 12.160156 12.800781 L 12.089844 12.824219 "/>
<path style=" stroke:none;fill-rule:nonzero;fill:rgb(100%,100%,100%);fill-opacity:1;" d="M 12.257812 12.761719 L 12.105469 12.761719 L 12.105469 12.835938 "/>
<path style=" stroke:none;fill-rule:nonzero;fill:rgb(100%,100%,100%);fill-opacity:1;" d="M 12.257812 12.761719 L 12.136719 12.847656 L 12.089844 12.789062 "/>
<path style=" stroke:none;fill-rule:nonzero;fill:rgb(100%,100%,100%);fill-opacity:1;" d="M 11.972656 12.761719 L 12.09375 12.847656 L 12.136719 12.789062 "/>
<path style=" stroke:none;fill-rule:nonzero;fill:rgb(100%,100%,100%);fill-opacity:1;" d="M 11.972656 12.761719 L 12.121094 12.761719 L 12.121094 12.835938 "/>
<path style=" stroke:none;fill-rule:nonzero;fill:rgb(100%,100%,100%);fill-opacity:1;" d="M 12.203125 12.929688 L 12.15625 12.785156 L 12.085938 12.808594 "/>
<path style=" stroke:none;fill-rule:nonzero;fill:rgb(100%,100%,100%);fill-opacity:1;" d="M 12.203125 12.929688 L 12.082031 12.839844 L 12.125 12.78125 "/>
<path style=" stroke:none;fill-rule:nonzero;fill:rgb(100%,100%,100%);fill-opacity:1;" d="M 12.027344 12.929688 L 12.148438 12.839844 L 12.101562 12.78125 "/>
<path style=" stroke:none;fill-rule:nonzero;fill:rgb(100%,100%,100%);fill-opacity:1;" d="M 12.027344 12.929688 L 12.074219 12.785156 L 12.144531 12.808594 "/>
<path style=" stroke:none;fill-rule:nonzero;fill:rgb(100%,100%,100%);fill-opacity:1;" d="M 16.628906 8.644531 L 16.558594 8.859375 L 16.667969 8.894531 "/>
<path style=" stroke:none;fill-rule:nonzero;fill:rgb(100%,100%,100%);fill-opacity:1;" d="M 16.628906 8.644531 L 16.699219 8.859375 L 16.589844 8.894531 "/>
<path style=" stroke:none;fill-rule:nonzero;fill:rgb(100%,100%,100%);fill-opacity:1;" d="M 16.84375 8.800781 L 16.617188 8.800781 L 16.617188 8.914062 "/>
<path style=" stroke:none;fill-rule:nonzero;fill:rgb(100%,100%,100%);fill-opacity:1;" d="M 16.84375 8.800781 L 16.660156 8.933594 L 16.59375 8.84375 "/>
<path style=" stroke:none;fill-rule:nonzero;fill:rgb(100%,100%,100%);fill-opacity:1;" d="M 16.414062 8.800781 L 16.597656 8.933594 L 16.664062 8.84375 "/>
<path style=" stroke:none;fill-rule:nonzero;fill:rgb(100%,100%,100%);fill-opacity:1;" d="M 16.414062 8.800781 L 16.640625 8.800781 L 16.640625 8.914062 "/>
<path style=" stroke:none;fill-rule:nonzero;fill:rgb(100%,100%,100%);fill-opacity:1;" d="M 16.761719 9.054688 L 16.691406 8.839844 L 16.585938 8.875 "/>
<path style=" stroke:none;fill-rule:nonzero;fill:rgb(100%,100%,100%);fill-opacity:1;" d="M 16.761719 9.054688 L 16.578125 8.921875 L 16.644531 8.832031 "/>
<path style=" stroke:none;fill-rule:nonzero;fill:rgb(100%,100%,100%);fill-opacity:1;" d="M 16.496094 9.054688 L 16.679688 8.921875 L 16.613281 8.832031 "/>
<path style=" stroke:none;fill-rule:nonzero;fill:rgb(100%,100%,100%);fill-opacity:1;" d="M 16.496094 9.054688 L 16.566406 8.839844 L 16.671875 8.875 "/>
<path style=" stroke:none;fill-rule:nonzero;fill:rgb(100%,100%,100%);fill-opacity:1;" d="M 18.679688 12.117188 L 18.609375 12.332031 L 18.714844 12.367188 "/>
<path style=" stroke:none;fill-rule:nonzero;fill:rgb(100%,100%,100%);fill-opacity:1;" d="M 18.679688 12.117188 L 18.75 12.332031 L 18.640625 12.367188 "/>
<path style=" stroke:none;fill-rule:nonzero;fill:rgb(100%,100%,100%);fill-opacity:1;" d="M 18.890625 12.273438 L 18.667969 12.273438 L 18.667969 12.386719 "/>
<path style=" stroke:none;fill-rule:nonzero;fill:rgb(100%,100%,100%);fill-opacity:1;" d="M 18.890625 12.273438 L 18.710938 12.40625 L 18.644531 12.316406 "/>
<path style=" stroke:none;fill-rule:nonzero;fill:rgb(100%,100%,100%);fill-opacity:1;" d="M 18.464844 12.273438 L 18.648438 12.40625 L 18.710938 12.316406 "/>
<path style=" stroke:none;fill-rule:nonzero;fill:rgb(100%,100%,100%);fill-opacity:1;" d="M 18.464844 12.273438 L 18.691406 12.273438 L 18.691406 12.386719 "/>
<path style=" stroke:none;fill-rule:nonzero;fill:rgb(100%,100%,100%);fill-opacity:1;" d="M 18.8125 12.523438 L 18.742188 12.3125 L 18.632812 12.34375 "/>
<path style=" stroke:none;fill-rule:nonzero;fill:rgb(100%,100%,100%);fill-opacity:1;" d="M 18.8125 12.523438 L 18.628906 12.394531 L 18.695312 12.300781 "/>
<path style=" stroke:none;fill-rule:nonzero;fill:rgb(100%,100%,100%);fill-opacity:1;" d="M 18.546875 12.523438 L 18.726562 12.394531 L 18.664062 12.300781 "/>
<path style=" stroke:none;fill-rule:nonzero;fill:rgb(100%,100%,100%);fill-opacity:1;" d="M 18.546875 12.523438 L 18.617188 12.3125 L 18.722656 12.34375 "/>
<path style=" stroke:none;fill-rule:nonzero;fill:rgb(100%,100%,100%);fill-opacity:1;" d="M 19.40625 12.242188 L 19.359375 12.386719 L 19.433594 12.410156 "/>
<path style=" stroke:none;fill-rule:nonzero;fill:rgb(100%,100%,100%);fill-opacity:1;" d="M 19.40625 12.242188 L 19.453125 12.386719 L 19.382812 12.410156 "/>
<path style=" stroke:none;fill-rule:nonzero;fill:rgb(100%,100%,100%);fill-opacity:1;" d="M 19.550781 12.347656 L 19.398438 12.347656 L 19.398438 12.421875 "/>
<path style=" stroke:none;fill-rule:nonzero;fill:rgb(100%,100%,100%);fill-opacity:1;" d="M 19.550781 12.347656 L 19.429688 12.433594 L 19.382812 12.375 "/>
<path style=" stroke:none;fill-rule:nonzero;fill:rgb(100%,100%,100%);fill-opacity:1;" d="M 19.265625 12.347656 L 19.386719 12.433594 L 19.429688 12.375 "/>
<path style=" stroke:none;fill-rule:nonzero;fill:rgb(100%,100%,100%);fill-opacity:1;" d="M 19.265625 12.347656 L 19.414062 12.347656 L 19.414062 12.421875 "/>
<path style=" stroke:none;fill-rule:nonzero;fill:rgb(100%,100%,100%);fill-opacity:1;" d="M 19.496094 12.515625 L 19.449219 12.371094 L 19.378906 12.394531 "/>
<path style=" stroke:none;fill-rule:nonzero;fill:rgb(100%,100%,100%);fill-opacity:1;" d="M 19.496094 12.515625 L 19.375 12.425781 L 19.417969 12.367188 "/>
<path style=" stroke:none;fill-rule:nonzero;fill:rgb(100%,100%,100%);fill-opacity:1;" d="M 19.320312 12.515625 L 19.441406 12.425781 L 19.394531 12.367188 "/>
<path style=" stroke:none;fill-rule:nonzero;fill:rgb(100%,100%,100%);fill-opacity:1;" d="M 19.320312 12.515625 L 19.367188 12.371094 L 19.4375 12.394531 "/>
<path style=" stroke:none;fill-rule:nonzero;fill:rgb(100%,100%,100%);fill-opacity:1;" d="M 18.894531 12.621094 L 18.835938 12.796875 L 18.925781 12.828125 "/>
<path style=" stroke:none;fill-rule:nonzero;fill:rgb(100%,100%,100%);fill-opacity:1;" d="M 18.894531 12.621094 L 18.949219 12.796875 L 18.863281 12.828125 "/>
<path style=" stroke:none;fill-rule:nonzero;fill:rgb(100%,100%,100%);fill-opacity:1;" d="M 19.070312 12.75 L 18.882812 12.75 L 18.882812 12.84375 "/>
<path style=" stroke:none;fill-rule:nonzero;fill:rgb(100%,100%,100%);fill-opacity:1;" d="M 19.070312 12.75 L 18.917969 12.859375 L 18.863281 12.785156 "/>
<path style=" stroke:none;fill-rule:nonzero;fill:rgb(100%,100%,100%);fill-opacity:1;" d="M 18.714844 12.75 L 18.867188 12.859375 L 18.921875 12.785156 "/>
<path style=" stroke:none;fill-rule:nonzero;fill:rgb(100%,100%,100%);fill-opacity:1;" d="M 18.714844 12.75 L 18.902344 12.75 L 18.902344 12.84375 "/>
<path style=" stroke:none;fill-rule:nonzero;fill:rgb(100%,100%,100%);fill-opacity:1;" d="M 19.003906 12.957031 L 18.945312 12.78125 L 18.855469 12.808594 "/>
<path style=" stroke:none;fill-rule:nonzero;fill:rgb(100%,100%,100%);fill-opacity:1;" d="M 19.003906 12.957031 L 18.851562 12.847656 L 18.90625 12.773438 "/>
<path style=" stroke:none;fill-rule:nonzero;fill:rgb(100%,100%,100%);fill-opacity:1;" d="M 18.78125 12.957031 L 18.933594 12.847656 L 18.878906 12.773438 "/>
<path style=" stroke:none;fill-rule:nonzero;fill:rgb(100%,100%,100%);fill-opacity:1;" d="M 18.78125 12.957031 L 18.839844 12.78125 L 18.929688 12.808594 "/>
<path style=" stroke:none;fill-rule:nonzero;fill:rgb(100%,100%,100%);fill-opacity:1;" d="M 17.628906 13.71875 L 17.570312 13.898438 L 17.660156 13.925781 "/>
<path style=" stroke:none;fill-rule:nonzero;fill:rgb(100%,100%,100%);fill-opacity:1;" d="M 17.628906 13.71875 L 17.6875 13.898438 L 17.597656 13.925781 "/>
<path style=" stroke:none;fill-rule:nonzero;fill:rgb(100%,100%,100%);fill-opacity:1;" d="M 17.808594 13.847656 L 17.621094 13.847656 L 17.621094 13.941406 "/>
<path style=" stroke:none;fill-rule:nonzero;fill:rgb(100%,100%,100%);fill-opacity:1;" d="M 17.808594 13.847656 L 17.65625 13.960938 L 17.601562 13.882812 "/>
<path style=" stroke:none;fill-rule:nonzero;fill:rgb(100%,100%,100%);fill-opacity:1;" d="M 17.449219 13.847656 L 17.601562 13.960938 L 17.65625 13.882812 "/>
<path style=" stroke:none;fill-rule:nonzero;fill:rgb(100%,100%,100%);fill-opacity:1;" d="M 17.449219 13.847656 L 17.636719 13.847656 L 17.636719 13.941406 "/>
<path style=" stroke:none;fill-rule:nonzero;fill:rgb(100%,100%,100%);fill-opacity:1;" d="M 17.738281 14.058594 L 17.679688 13.878906 L 17.589844 13.910156 "/>
<path style=" stroke:none;fill-rule:nonzero;fill:rgb(100%,100%,100%);fill-opacity:1;" d="M 17.738281 14.058594 L 17.585938 13.949219 L 17.640625 13.871094 "/>
<path style=" stroke:none;fill-rule:nonzero;fill:rgb(100%,100%,100%);fill-opacity:1;" d="M 17.519531 14.058594 L 17.671875 13.949219 L 17.613281 13.871094 "/>
<path style=" stroke:none;fill-rule:nonzero;fill:rgb(100%,100%,100%);fill-opacity:1;" d="M 17.519531 14.058594 L 17.578125 13.878906 L 17.664062 13.910156 "/>
<path style=" stroke:none;fill-rule:nonzero;fill:rgb(100%,100%,100%);fill-opacity:1;" d="M 17.621094 14.285156 L 17.574219 14.429688 L 17.644531 14.453125 "/>
<path style=" stroke:none;fill-rule:nonzero;fill:rgb(100%,100%,100%);fill-opacity:1;" d="M 17.621094 14.285156 L 17.667969 14.429688 L 17.597656 14.453125 "/>
<path style=" stroke:none;fill-rule:nonzero;fill:rgb(100%,100%,100%);fill-opacity:1;" d="M 17.765625 14.390625 L 17.613281 14.390625 L 17.613281 14.464844 "/>
<path style=" stroke:none;fill-rule:nonzero;fill:rgb(100%,100%,100%);fill-opacity:1;" d="M 17.765625 14.390625 L 17.644531 14.476562 L 17.597656 14.417969 "/>
<path style=" stroke:none;fill-rule:nonzero;fill:rgb(100%,100%,100%);fill-opacity:1;" d="M 17.480469 14.390625 L 17.601562 14.476562 L 17.644531 14.417969 "/>
<path style=" stroke:none;fill-rule:nonzero;fill:rgb(100%,100%,100%);fill-opacity:1;" d="M 17.480469 14.390625 L 17.628906 14.390625 L 17.628906 14.464844 "/>
<path style=" stroke:none;fill-rule:nonzero;fill:rgb(100%,100%,100%);fill-opacity:1;" d="M 17.710938 14.558594 L 17.664062 14.414062 L 17.59375 14.4375 "/>
<path style=" stroke:none;fill-rule:nonzero;fill:rgb(100%,100%,100%);fill-opacity:1;" d="M 17.710938 14.558594 L 17.589844 14.46875 L 17.632812 14.410156 "/>
<path style=" stroke:none;fill-rule:nonzero;fill:rgb(100%,100%,100%);fill-opacity:1;" d="M 17.535156 14.558594 L 17.65625 14.46875 L 17.609375 14.410156 "/>
<path style=" stroke:none;fill-rule:nonzero;fill:rgb(100%,100%,100%);fill-opacity:1;" d="M 17.535156 14.558594 L 17.578125 14.414062 L 17.652344 14.4375 "/>
<path style=" stroke:none;fill-rule:nonzero;fill:rgb(100%,100%,100%);fill-opacity:1;" d="M 18.148438 13.34375 L 18.105469 13.484375 L 18.175781 13.507812 "/>
<path style=" stroke:none;fill-rule:nonzero;fill:rgb(100%,100%,100%);fill-opacity:1;" d="M 18.148438 13.34375 L 18.195312 13.484375 L 18.125 13.507812 "/>
<path style=" stroke:none;fill-rule:nonzero;fill:rgb(100%,100%,100%);fill-opacity:1;" d="M 18.292969 13.445312 L 18.144531 13.445312 L 18.144531 13.523438 "/>
<path style=" stroke:none;fill-rule:nonzero;fill:rgb(100%,100%,100%);fill-opacity:1;" d="M 18.292969 13.445312 L 18.171875 13.535156 L 18.128906 13.472656 "/>
<path style=" stroke:none;fill-rule:nonzero;fill:rgb(100%,100%,100%);fill-opacity:1;" d="M 18.007812 13.445312 L 18.128906 13.535156 L 18.171875 13.472656 "/>
<path style=" stroke:none;fill-rule:nonzero;fill:rgb(100%,100%,100%);fill-opacity:1;" d="M 18.007812 13.445312 L 18.15625 13.445312 L 18.15625 13.523438 "/>
<path style=" stroke:none;fill-rule:nonzero;fill:rgb(100%,100%,100%);fill-opacity:1;" d="M 18.238281 13.613281 L 18.191406 13.472656 L 18.121094 13.496094 "/>
<path style=" stroke:none;fill-rule:nonzero;fill:rgb(100%,100%,100%);fill-opacity:1;" d="M 18.238281 13.613281 L 18.117188 13.527344 L 18.160156 13.464844 "/>
<path style=" stroke:none;fill-rule:nonzero;fill:rgb(100%,100%,100%);fill-opacity:1;" d="M 18.0625 13.613281 L 18.183594 13.527344 L 18.140625 13.464844 "/>
<path style=" stroke:none;fill-rule:nonzero;fill:rgb(100%,100%,100%);fill-opacity:1;" d="M 18.0625 13.613281 L 18.109375 13.472656 L 18.179688 13.496094 "/>
<path style=" stroke:none;fill-rule:nonzero;fill:rgb(100%,100%,100%);fill-opacity:1;" d="M 18.570312 13.042969 L 18.511719 13.21875 L 18.601562 13.25 "/>
<path style=" stroke:none;fill-rule:nonzero;fill:rgb(100%,100%,100%);fill-opacity:1;" d="M 18.570312 13.042969 L 18.628906 13.21875 L 18.539062 13.25 "/>
<path style=" stroke:none;fill-rule:nonzero;fill:rgb(100%,100%,100%);fill-opacity:1;" d="M 18.75 13.171875 L 18.5625 13.171875 L 18.5625 13.265625 "/>
<path style=" stroke:none;fill-rule:nonzero;fill:rgb(100%,100%,100%);fill-opacity:1;" d="M 18.75 13.171875 L 18.597656 13.28125 L 18.542969 13.203125 "/>
<path style=" stroke:none;fill-rule:nonzero;fill:rgb(100%,100%,100%);fill-opacity:1;" d="M 18.394531 13.171875 L 18.542969 13.28125 L 18.601562 13.203125 "/>
<path style=" stroke:none;fill-rule:nonzero;fill:rgb(100%,100%,100%);fill-opacity:1;" d="M 18.394531 13.171875 L 18.582031 13.171875 L 18.582031 13.265625 "/>
<path style=" stroke:none;fill-rule:nonzero;fill:rgb(100%,100%,100%);fill-opacity:1;" d="M 18.679688 13.378906 L 18.625 13.203125 L 18.535156 13.230469 "/>
<path style=" stroke:none;fill-rule:nonzero;fill:rgb(100%,100%,100%);fill-opacity:1;" d="M 18.679688 13.378906 L 18.53125 13.269531 L 18.585938 13.195312 "/>
<path style=" stroke:none;fill-rule:nonzero;fill:rgb(100%,100%,100%);fill-opacity:1;" d="M 18.460938 13.378906 L 18.613281 13.269531 L 18.558594 13.195312 "/>
<path style=" stroke:none;fill-rule:nonzero;fill:rgb(100%,100%,100%);fill-opacity:1;" d="M 18.460938 13.378906 L 18.519531 13.203125 L 18.609375 13.230469 "/>
<path style=" stroke:none;fill-rule:nonzero;fill:rgb(100%,100%,100%);fill-opacity:1;" d="M 17.605469 13.242188 L 17.5625 13.386719 L 17.632812 13.410156 "/>
<path style=" stroke:none;fill-rule:nonzero;fill:rgb(100%,100%,100%);fill-opacity:1;" d="M 17.605469 13.242188 L 17.652344 13.386719 L 17.582031 13.410156 "/>
<path style=" stroke:none;fill-rule:nonzero;fill:rgb(100%,100%,100%);fill-opacity:1;" d="M 17.75 13.347656 L 17.601562 13.347656 L 17.601562 13.421875 "/>
<path style=" stroke:none;fill-rule:nonzero;fill:rgb(100%,100%,100%);fill-opacity:1;" d="M 17.75 13.347656 L 17.628906 13.433594 L 17.585938 13.375 "/>
<path style=" stroke:none;fill-rule:nonzero;fill:rgb(100%,100%,100%);fill-opacity:1;" d="M 17.464844 13.347656 L 17.585938 13.433594 L 17.628906 13.375 "/>
<path style=" stroke:none;fill-rule:nonzero;fill:rgb(100%,100%,100%);fill-opacity:1;" d="M 17.464844 13.347656 L 17.613281 13.347656 L 17.613281 13.421875 "/>
<path style=" stroke:none;fill-rule:nonzero;fill:rgb(100%,100%,100%);fill-opacity:1;" d="M 17.695312 13.515625 L 17.648438 13.371094 L 17.578125 13.394531 "/>
<path style=" stroke:none;fill-rule:nonzero;fill:rgb(100%,100%,100%);fill-opacity:1;" d="M 17.695312 13.515625 L 17.574219 13.425781 L 17.617188 13.367188 "/>
<path style=" stroke:none;fill-rule:nonzero;fill:rgb(100%,100%,100%);fill-opacity:1;" d="M 17.519531 13.515625 L 17.640625 13.425781 L 17.597656 13.367188 "/>
<path style=" stroke:none;fill-rule:nonzero;fill:rgb(100%,100%,100%);fill-opacity:1;" d="M 17.519531 13.515625 L 17.566406 13.371094 L 17.636719 13.394531 "/>
<path style=" stroke:none;fill-rule:nonzero;fill:rgb(100%,100%,100%);fill-opacity:1;" d="M 13 10.527344 L 12.941406 10.707031 L 13.03125 10.734375 "/>
<path style=" stroke:none;fill-rule:nonzero;fill:rgb(100%,100%,100%);fill-opacity:1;" d="M 13 10.527344 L 13.058594 10.707031 L 12.96875 10.734375 "/>
<path style=" stroke:none;fill-rule:nonzero;fill:rgb(100%,100%,100%);fill-opacity:1;" d="M 13.179688 10.65625 L 12.992188 10.65625 L 12.992188 10.75 "/>
<path style=" stroke:none;fill-rule:nonzero;fill:rgb(100%,100%,100%);fill-opacity:1;" d="M 13.179688 10.65625 L 13.027344 10.765625 L 12.972656 10.691406 "/>
<path style=" stroke:none;fill-rule:nonzero;fill:rgb(100%,100%,100%);fill-opacity:1;" d="M 12.820312 10.65625 L 12.972656 10.765625 L 13.027344 10.691406 "/>
<path style=" stroke:none;fill-rule:nonzero;fill:rgb(100%,100%,100%);fill-opacity:1;" d="M 12.820312 10.65625 L 13.007812 10.65625 L 13.007812 10.75 "/>
<path style=" stroke:none;fill-rule:nonzero;fill:rgb(100%,100%,100%);fill-opacity:1;" d="M 13.109375 10.867188 L 13.050781 10.6875 L 12.964844 10.714844 "/>
<path style=" stroke:none;fill-rule:nonzero;fill:rgb(100%,100%,100%);fill-opacity:1;" d="M 13.109375 10.867188 L 12.957031 10.753906 L 13.011719 10.679688 "/>
<path style=" stroke:none;fill-rule:nonzero;fill:rgb(100%,100%,100%);fill-opacity:1;" d="M 12.890625 10.867188 L 13.042969 10.753906 L 12.988281 10.679688 "/>
<path style=" stroke:none;fill-rule:nonzero;fill:rgb(100%,100%,100%);fill-opacity:1;" d="M 12.890625 10.867188 L 12.949219 10.6875 L 13.035156 10.714844 "/>
<path style=" stroke:none;fill-rule:nonzero;fill:rgb(100%,100%,100%);fill-opacity:1;" d="M 16.429688 10.085938 L 16.382812 10.226562 L 16.453125 10.25 "/>
<path style=" stroke:none;fill-rule:nonzero;fill:rgb(100%,100%,100%);fill-opacity:1;" d="M 16.429688 10.085938 L 16.476562 10.226562 L 16.402344 10.25 "/>
<path style=" stroke:none;fill-rule:nonzero;fill:rgb(100%,100%,100%);fill-opacity:1;" d="M 16.570312 10.1875 L 16.421875 10.1875 L 16.421875 10.265625 "/>
<path style=" stroke:none;fill-rule:nonzero;fill:rgb(100%,100%,100%);fill-opacity:1;" d="M 16.570312 10.1875 L 16.449219 10.277344 L 16.40625 10.21875 "/>
<path style=" stroke:none;fill-rule:nonzero;fill:rgb(100%,100%,100%);fill-opacity:1;" d="M 16.285156 10.1875 L 16.40625 10.277344 L 16.453125 10.21875 "/>
<path style=" stroke:none;fill-rule:nonzero;fill:rgb(100%,100%,100%);fill-opacity:1;" d="M 16.285156 10.1875 L 16.4375 10.1875 L 16.4375 10.265625 "/>
<path style=" stroke:none;fill-rule:nonzero;fill:rgb(100%,100%,100%);fill-opacity:1;" d="M 16.515625 10.355469 L 16.46875 10.214844 L 16.398438 10.238281 "/>
<path style=" stroke:none;fill-rule:nonzero;fill:rgb(100%,100%,100%);fill-opacity:1;" d="M 16.515625 10.355469 L 16.394531 10.269531 L 16.441406 10.207031 "/>
<path style=" stroke:none;fill-rule:nonzero;fill:rgb(100%,100%,100%);fill-opacity:1;" d="M 16.339844 10.355469 L 16.460938 10.269531 L 16.417969 10.207031 "/>
<path style=" stroke:none;fill-rule:nonzero;fill:rgb(100%,100%,100%);fill-opacity:1;" d="M 16.339844 10.355469 L 16.386719 10.214844 L 16.457031 10.238281 "/>
<path style=" stroke:none;fill-rule:nonzero;fill:rgb(100%,100%,100%);fill-opacity:1;" d="M 15 12.632812 L 14.929688 12.847656 L 15.039062 12.882812 "/>
<path style=" stroke:none;fill-rule:nonzero;fill:rgb(100%,100%,100%);fill-opacity:1;" d="M 15 12.632812 L 15.070312 12.847656 L 14.960938 12.882812 "/>
<path style=" stroke:none;fill-rule:nonzero;fill:rgb(100%,100%,100%);fill-opacity:1;" d="M 15.214844 12.789062 L 14.988281 12.789062 L 14.988281 12.898438 "/>
<path style=" stroke:none;fill-rule:nonzero;fill:rgb(100%,100%,100%);fill-opacity:1;" d="M 15.214844 12.789062 L 15.03125 12.917969 L 14.964844 12.828125 "/>
<path style=" stroke:none;fill-rule:nonzero;fill:rgb(100%,100%,100%);fill-opacity:1;" d="M 14.785156 12.789062 L 14.96875 12.917969 L 15.035156 12.828125 "/>
<path style=" stroke:none;fill-rule:nonzero;fill:rgb(100%,100%,100%);fill-opacity:1;" d="M 14.785156 12.789062 L 15.011719 12.789062 L 15.011719 12.898438 "/>
<path style=" stroke:none;fill-rule:nonzero;fill:rgb(100%,100%,100%);fill-opacity:1;" d="M 15.132812 13.039062 L 15.0625 12.824219 L 14.957031 12.859375 "/>
<path style=" stroke:none;fill-rule:nonzero;fill:rgb(100%,100%,100%);fill-opacity:1;" d="M 15.132812 13.039062 L 14.949219 12.90625 L 15.015625 12.816406 "/>
<path style=" stroke:none;fill-rule:nonzero;fill:rgb(100%,100%,100%);fill-opacity:1;" d="M 14.867188 13.039062 L 15.050781 12.90625 L 14.984375 12.816406 "/>
<path style=" stroke:none;fill-rule:nonzero;fill:rgb(100%,100%,100%);fill-opacity:1;" d="M 14.867188 13.039062 L 14.9375 12.824219 L 15.042969 12.859375 "/>
<path style=" stroke:none;fill-rule:nonzero;fill:rgb(100%,100%,100%);fill-opacity:1;" d="M 15.605469 11.625 L 15.550781 11.804688 L 15.636719 11.835938 "/>
<path style=" stroke:none;fill-rule:nonzero;fill:rgb(100%,100%,100%);fill-opacity:1;" d="M 15.605469 11.625 L 15.664062 11.804688 L 15.574219 11.835938 "/>
<path style=" stroke:none;fill-rule:nonzero;fill:rgb(100%,100%,100%);fill-opacity:1;" d="M 15.785156 11.757812 L 15.597656 11.757812 L 15.597656 11.851562 "/>
<path style=" stroke:none;fill-rule:nonzero;fill:rgb(100%,100%,100%);fill-opacity:1;" d="M 15.785156 11.757812 L 15.632812 11.867188 L 15.578125 11.789062 "/>
<path style=" stroke:none;fill-rule:nonzero;fill:rgb(100%,100%,100%);fill-opacity:1;" d="M 15.429688 11.757812 L 15.582031 11.867188 L 15.636719 11.789062 "/>
<path style=" stroke:none;fill-rule:nonzero;fill:rgb(100%,100%,100%);fill-opacity:1;" d="M 15.429688 11.757812 L 15.617188 11.757812 L 15.617188 11.851562 "/>
<path style=" stroke:none;fill-rule:nonzero;fill:rgb(100%,100%,100%);fill-opacity:1;" d="M 15.71875 11.964844 L 15.660156 11.789062 L 15.570312 11.816406 "/>
<path style=" stroke:none;fill-rule:nonzero;fill:rgb(100%,100%,100%);fill-opacity:1;" d="M 15.71875 11.964844 L 15.566406 11.855469 L 15.621094 11.78125 "/>
<path style=" stroke:none;fill-rule:nonzero;fill:rgb(100%,100%,100%);fill-opacity:1;" d="M 15.496094 11.964844 L 15.648438 11.855469 L 15.59375 11.78125 "/>
<path style=" stroke:none;fill-rule:nonzero;fill:rgb(100%,100%,100%);fill-opacity:1;" d="M 15.496094 11.964844 L 15.554688 11.789062 L 15.644531 11.816406 "/>
<path style=" stroke:none;fill-rule:nonzero;fill:rgb(100%,100%,100%);fill-opacity:1;" d="M 15 11.15625 L 14.941406 11.332031 L 15.03125 11.363281 "/>
<path style=" stroke:none;fill-rule:nonzero;fill:rgb(100%,100%,100%);fill-opacity:1;" d="M 15 11.15625 L 15.058594 11.332031 L 14.96875 11.363281 "/>
<path style=" stroke:none;fill-rule:nonzero;fill:rgb(100%,100%,100%);fill-opacity:1;" d="M 15.179688 11.285156 L 14.992188 11.285156 L 14.992188 11.378906 "/>
<path style=" stroke:none;fill-rule:nonzero;fill:rgb(100%,100%,100%);fill-opacity:1;" d="M 15.179688 11.285156 L 15.027344 11.394531 L 14.972656 11.320312 "/>
<path style=" stroke:none;fill-rule:nonzero;fill:rgb(100%,100%,100%);fill-opacity:1;" d="M 14.820312 11.285156 L 14.972656 11.394531 L 15.027344 11.320312 "/>
<path style=" stroke:none;fill-rule:nonzero;fill:rgb(100%,100%,100%);fill-opacity:1;" d="M 14.820312 11.285156 L 15.007812 11.285156 L 15.007812 11.378906 "/>
<path style=" stroke:none;fill-rule:nonzero;fill:rgb(100%,100%,100%);fill-opacity:1;" d="M 15.109375 11.496094 L 15.050781 11.316406 L 14.964844 11.34375 "/>
<path style=" stroke:none;fill-rule:nonzero;fill:rgb(100%,100%,100%);fill-opacity:1;" d="M 15.109375 11.496094 L 14.957031 11.382812 L 15.011719 11.308594 "/>
<path style=" stroke:none;fill-rule:nonzero;fill:rgb(100%,100%,100%);fill-opacity:1;" d="M 14.890625 11.496094 L 15.042969 11.382812 L 14.988281 11.308594 "/>
<path style=" stroke:none;fill-rule:nonzero;fill:rgb(100%,100%,100%);fill-opacity:1;" d="M 14.890625 11.496094 L 14.949219 11.316406 L 15.035156 11.34375 "/>
<path style=" stroke:none;fill-rule:nonzero;fill:rgb(100%,100%,100%);fill-opacity:1;" d="M 14.472656 11.664062 L 14.425781 11.808594 L 14.496094 11.832031 "/>
<path style=" stroke:none;fill-rule:nonzero;fill:rgb(100%,100%,100%);fill-opacity:1;" d="M 14.472656 11.664062 L 14.519531 11.808594 L 14.445312 11.832031 "/>
<path style=" stroke:none;fill-rule:nonzero;fill:rgb(100%,100%,100%);fill-opacity:1;" d="M 14.613281 11.769531 L 14.464844 11.769531 L 14.464844 11.84375 "/>
<path style=" stroke:none;fill-rule:nonzero;fill:rgb(100%,100%,100%);fill-opacity:1;" d="M 14.613281 11.769531 L 14.492188 11.855469 L 14.449219 11.796875 "/>
<path style=" stroke:none;fill-rule:nonzero;fill:rgb(100%,100%,100%);fill-opacity:1;" d="M 14.328125 11.769531 L 14.449219 11.855469 L 14.496094 11.796875 "/>
<path style=" stroke:none;fill-rule:nonzero;fill:rgb(100%,100%,100%);fill-opacity:1;" d="M 14.328125 11.769531 L 14.480469 11.769531 L 14.480469 11.84375 "/>
<path style=" stroke:none;fill-rule:nonzero;fill:rgb(100%,100%,100%);fill-opacity:1;" d="M 14.558594 11.9375 L 14.511719 11.792969 L 14.441406 11.816406 "/>
<path style=" stroke:none;fill-rule:nonzero;fill:rgb(100%,100%,100%);fill-opacity:1;" d="M 14.558594 11.9375 L 14.4375 11.847656 L 14.480469 11.785156 "/>
<path style=" stroke:none;fill-rule:nonzero;fill:rgb(100%,100%,100%);fill-opacity:1;" d="M 14.382812 11.9375 L 14.503906 11.847656 L 14.460938 11.785156 "/>
<path style=" stroke:none;fill-rule:nonzero;fill:rgb(100%,100%,100%);fill-opacity:1;" d="M 14.382812 11.9375 L 14.429688 11.792969 L 14.5 11.816406 "/>
<path style=" stroke:none;fill-rule:nonzero;fill:rgb(100%,100%,100%);fill-opacity:1;" d="M 14.734375 12.070312 L 14.703125 12.171875 L 14.753906 12.191406 "/>
<path style=" stroke:none;fill-rule:nonzero;fill:rgb(100%,100%,100%);fill-opacity:1;" d="M 14.734375 12.070312 L 14.769531 12.171875 L 14.71875 12.191406 "/>
<path style=" stroke:none;fill-rule:nonzero;fill:rgb(100%,100%,100%);fill-opacity:1;" d="M 14.835938 12.144531 L 14.730469 12.144531 L 14.730469 12.199219 "/>
<path style=" stroke:none;fill-rule:nonzero;fill:rgb(100%,100%,100%);fill-opacity:1;" d="M 14.835938 12.144531 L 14.75 12.207031 L 14.71875 12.164062 "/>
<path style=" stroke:none;fill-rule:nonzero;fill:rgb(100%,100%,100%);fill-opacity:1;" d="M 14.632812 12.144531 L 14.71875 12.207031 L 14.753906 12.164062 "/>
<path style=" stroke:none;fill-rule:nonzero;fill:rgb(100%,100%,100%);fill-opacity:1;" d="M 14.632812 12.144531 L 14.742188 12.144531 L 14.742188 12.199219 "/>
<path style=" stroke:none;fill-rule:nonzero;fill:rgb(100%,100%,100%);fill-opacity:1;" d="M 14.796875 12.265625 L 14.765625 12.164062 L 14.714844 12.179688 "/>
<path style=" stroke:none;fill-rule:nonzero;fill:rgb(100%,100%,100%);fill-opacity:1;" d="M 14.796875 12.265625 L 14.710938 12.203125 L 14.742188 12.160156 "/>
<path style=" stroke:none;fill-rule:nonzero;fill:rgb(100%,100%,100%);fill-opacity:1;" d="M 14.671875 12.265625 L 14.757812 12.203125 L 14.726562 12.160156 "/>
<path style=" stroke:none;fill-rule:nonzero;fill:rgb(100%,100%,100%);fill-opacity:1;" d="M 14.671875 12.265625 L 14.707031 12.164062 L 14.757812 12.179688 "/>
<path style=" stroke:none;fill-rule:nonzero;fill:rgb(100%,100%,100%);fill-opacity:1;" d="M 16.570312 13.847656 L 16.511719 14.027344 L 16.601562 14.054688 "/>
<path style=" stroke:none;fill-rule:nonzero;fill:rgb(100%,100%,100%);fill-opacity:1;" d="M 16.570312 13.847656 L 16.628906 14.027344 L 16.539062 14.054688 "/>
<path style=" stroke:none;fill-rule:nonzero;fill:rgb(100%,100%,100%);fill-opacity:1;" d="M 16.75 13.976562 L 16.5625 13.976562 L 16.5625 14.070312 "/>
<path style=" stroke:none;fill-rule:nonzero;fill:rgb(100%,100%,100%);fill-opacity:1;" d="M 16.75 13.976562 L 16.597656 14.089844 L 16.542969 14.011719 "/>
<path style=" stroke:none;fill-rule:nonzero;fill:rgb(100%,100%,100%);fill-opacity:1;" d="M 16.394531 13.976562 L 16.542969 14.089844 L 16.601562 14.011719 "/>
<path style=" stroke:none;fill-rule:nonzero;fill:rgb(100%,100%,100%);fill-opacity:1;" d="M 16.394531 13.976562 L 16.582031 13.976562 L 16.582031 14.070312 "/>
<path style=" stroke:none;fill-rule:nonzero;fill:rgb(100%,100%,100%);fill-opacity:1;" d="M 16.679688 14.1875 L 16.625 14.007812 L 16.535156 14.039062 "/>
<path style=" stroke:none;fill-rule:nonzero;fill:rgb(100%,100%,100%);fill-opacity:1;" d="M 16.679688 14.1875 L 16.53125 14.078125 L 16.585938 14 "/>
<path style=" stroke:none;fill-rule:nonzero;fill:rgb(100%,100%,100%);fill-opacity:1;" d="M 16.460938 14.1875 L 16.613281 14.078125 L 16.558594 14 "/>
<path style=" stroke:none;fill-rule:nonzero;fill:rgb(100%,100%,100%);fill-opacity:1;" d="M 16.460938 14.1875 L 16.519531 14.007812 L 16.609375 14.039062 "/>
<path style=" stroke:none;fill-rule:nonzero;fill:rgb(100%,100%,100%);fill-opacity:1;" d="M 17.019531 13.421875 L 16.976562 13.5625 L 17.046875 13.585938 "/>
<path style=" stroke:none;fill-rule:nonzero;fill:rgb(100%,100%,100%);fill-opacity:1;" d="M 17.019531 13.421875 L 17.066406 13.5625 L 16.996094 13.585938 "/>
<path style=" stroke:none;fill-rule:nonzero;fill:rgb(100%,100%,100%);fill-opacity:1;" d="M 17.164062 13.523438 L 17.015625 13.523438 L 17.015625 13.601562 "/>
<path style=" stroke:none;fill-rule:nonzero;fill:rgb(100%,100%,100%);fill-opacity:1;" d="M 17.164062 13.523438 L 17.042969 13.613281 L 17 13.550781 "/>
<path style=" stroke:none;fill-rule:nonzero;fill:rgb(100%,100%,100%);fill-opacity:1;" d="M 16.878906 13.523438 L 17 13.613281 L 17.042969 13.550781 "/>
<path style=" stroke:none;fill-rule:nonzero;fill:rgb(100%,100%,100%);fill-opacity:1;" d="M 16.878906 13.523438 L 17.027344 13.523438 L 17.027344 13.601562 "/>
<path style=" stroke:none;fill-rule:nonzero;fill:rgb(100%,100%,100%);fill-opacity:1;" d="M 17.109375 13.691406 L 17.0625 13.550781 L 16.992188 13.574219 "/>
<path style=" stroke:none;fill-rule:nonzero;fill:rgb(100%,100%,100%);fill-opacity:1;" d="M 17.109375 13.691406 L 16.988281 13.605469 L 17.03125 13.542969 "/>
<path style=" stroke:none;fill-rule:nonzero;fill:rgb(100%,100%,100%);fill-opacity:1;" d="M 16.933594 13.691406 L 17.054688 13.605469 L 17.011719 13.542969 "/>
<path style=" stroke:none;fill-rule:nonzero;fill:rgb(100%,100%,100%);fill-opacity:1;" d="M 16.933594 13.691406 L 16.980469 13.550781 L 17.050781 13.574219 "/>
<path style=" stroke:none;fill-rule:nonzero;fill:rgb(100%,100%,100%);fill-opacity:1;" d="M 16.15625 13.292969 L 16.109375 13.433594 L 16.183594 13.457031 "/>
<path style=" stroke:none;fill-rule:nonzero;fill:rgb(100%,100%,100%);fill-opacity:1;" d="M 16.15625 13.292969 L 16.203125 13.433594 L 16.132812 13.457031 "/>
<path style=" stroke:none;fill-rule:nonzero;fill:rgb(100%,100%,100%);fill-opacity:1;" d="M 16.300781 13.398438 L 16.148438 13.398438 L 16.148438 13.472656 "/>
<path style=" stroke:none;fill-rule:nonzero;fill:rgb(100%,100%,100%);fill-opacity:1;" d="M 16.300781 13.398438 L 16.179688 13.484375 L 16.132812 13.425781 "/>
<path style=" stroke:none;fill-rule:nonzero;fill:rgb(100%,100%,100%);fill-opacity:1;" d="M 16.015625 13.398438 L 16.136719 13.484375 L 16.179688 13.425781 "/>
<path style=" stroke:none;fill-rule:nonzero;fill:rgb(100%,100%,100%);fill-opacity:1;" d="M 16.015625 13.398438 L 16.164062 13.398438 L 16.164062 13.472656 "/>
<path style=" stroke:none;fill-rule:nonzero;fill:rgb(100%,100%,100%);fill-opacity:1;" d="M 16.246094 13.5625 L 16.199219 13.421875 L 16.128906 13.445312 "/>
<path style=" stroke:none;fill-rule:nonzero;fill:rgb(100%,100%,100%);fill-opacity:1;" d="M 16.246094 13.5625 L 16.125 13.476562 L 16.167969 13.414062 "/>
<path style=" stroke:none;fill-rule:nonzero;fill:rgb(100%,100%,100%);fill-opacity:1;" d="M 16.070312 13.5625 L 16.191406 13.476562 L 16.144531 13.414062 "/>
<path style=" stroke:none;fill-rule:nonzero;fill:rgb(100%,100%,100%);fill-opacity:1;" d="M 16.070312 13.5625 L 16.117188 13.421875 L 16.1875 13.445312 "/>
<path style=" stroke:none;fill-rule:nonzero;fill:rgb(100%,100%,100%);fill-opacity:1;" d="M 12.894531 13.0625 L 12.824219 13.273438 L 12.929688 13.308594 "/>
<path style=" stroke:none;fill-rule:nonzero;fill:rgb(100%,100%,100%);fill-opacity:1;" d="M 12.894531 13.0625 L 12.960938 13.273438 L 12.855469 13.308594 "/>
<path style=" stroke:none;fill-rule:nonzero;fill:rgb(100%,100%,100%);fill-opacity:1;" d="M 13.105469 13.214844 L 12.882812 13.214844 L 12.882812 13.328125 "/>
<path style=" stroke:none;fill-rule:nonzero;fill:rgb(100%,100%,100%);fill-opacity:1;" d="M 13.105469 13.214844 L 12.925781 13.347656 L 12.859375 13.257812 "/>
<path style=" stroke:none;fill-rule:nonzero;fill:rgb(100%,100%,100%);fill-opacity:1;" d="M 12.679688 13.214844 L 12.859375 13.347656 L 12.925781 13.257812 "/>
<path style=" stroke:none;fill-rule:nonzero;fill:rgb(100%,100%,100%);fill-opacity:1;" d="M 12.679688 13.214844 L 12.902344 13.214844 L 12.902344 13.328125 "/>
<path style=" stroke:none;fill-rule:nonzero;fill:rgb(100%,100%,100%);fill-opacity:1;" d="M 13.023438 13.46875 L 12.957031 13.253906 L 12.847656 13.289062 "/>
<path style=" stroke:none;fill-rule:nonzero;fill:rgb(100%,100%,100%);fill-opacity:1;" d="M 13.023438 13.46875 L 12.84375 13.335938 L 12.910156 13.246094 "/>
<path style=" stroke:none;fill-rule:nonzero;fill:rgb(100%,100%,100%);fill-opacity:1;" d="M 12.761719 13.46875 L 12.941406 13.335938 L 12.875 13.246094 "/>
<path style=" stroke:none;fill-rule:nonzero;fill:rgb(100%,100%,100%);fill-opacity:1;" d="M 12.761719 13.46875 L 12.832031 13.253906 L 12.9375 13.289062 "/>
<path style=" stroke:none;fill-rule:nonzero;fill:rgb(100%,100%,100%);fill-opacity:1;" d="M 15 14.53125 L 14.976562 14.601562 L 15.011719 14.613281 "/>
<path style=" stroke:none;fill-rule:nonzero;fill:rgb(100%,100%,100%);fill-opacity:1;" d="M 15 14.53125 L 15.023438 14.601562 L 14.988281 14.613281 "/>
<path style=" stroke:none;fill-rule:nonzero;fill:rgb(100%,100%,100%);fill-opacity:1;" d="M 15.070312 14.582031 L 14.996094 14.582031 L 14.996094 14.621094 "/>
<path style=" stroke:none;fill-rule:nonzero;fill:rgb(100%,100%,100%);fill-opacity:1;" d="M 15.070312 14.582031 L 15.011719 14.628906 L 14.988281 14.597656 "/>
<path style=" stroke:none;fill-rule:nonzero;fill:rgb(100%,100%,100%);fill-opacity:1;" d="M 14.929688 14.582031 L 14.988281 14.628906 L 15.011719 14.597656 "/>
<path style=" stroke:none;fill-rule:nonzero;fill:rgb(100%,100%,100%);fill-opacity:1;" d="M 14.929688 14.582031 L 15.003906 14.582031 L 15.003906 14.621094 "/>
<path style=" stroke:none;fill-rule:nonzero;fill:rgb(100%,100%,100%);fill-opacity:1;" d="M 15.042969 14.667969 L 15.019531 14.597656 L 14.984375 14.609375 "/>
<path style=" stroke:none;fill-rule:nonzero;fill:rgb(100%,100%,100%);fill-opacity:1;" d="M 15.042969 14.667969 L 14.984375 14.625 L 15.003906 14.59375 "/>
<path style=" stroke:none;fill-rule:nonzero;fill:rgb(100%,100%,100%);fill-opacity:1;" d="M 14.957031 14.667969 L 15.015625 14.625 L 14.996094 14.59375 "/>
<path style=" stroke:none;fill-rule:nonzero;fill:rgb(100%,100%,100%);fill-opacity:1;" d="M 14.957031 14.667969 L 14.980469 14.597656 L 15.015625 14.609375 "/>
</g>
</svg>
