<?xml version="1.0" encoding="UTF-8"?>
<svg xmlns="http://www.w3.org/2000/svg" xmlns:xlink="http://www.w3.org/1999/xlink" width="30px" height="30px" viewBox="0 0 30 15" version="1.1">
<g id="surface1">
<rect x="0" y="0" width="30" height="15" style="fill:rgb(69.803922%,13.333333%,20.392157%);fill-opacity:1;stroke:none;"/>
<path style="fill-rule:nonzero;fill:rgb(0%,0%,0%);fill-opacity:1;stroke-width:300;stroke-linecap:butt;stroke-linejoin:miter;stroke:rgb(100%,100%,100%);stroke-opacity:1;stroke-miterlimit:4;" d="M 0 449.921875 L 7410 449.921875 M 7410 1050.15625 L 0 1050.15625 M 0 1650.390625 L 7410 1650.390625 M 7410 2249.609375 L 0 2249.609375 M 0 2849.84375 L 7410 2849.84375 M 7410 3450.078125 L 0 3450.078125 " transform="matrix(0.00404858,0,0,0.00384615,0,0)"/>
<path style=" stroke:none;fill-rule:nonzero;fill:rgb(23.529412%,23.137255%,43.137255%);fill-opacity:1;" d="M 0 0 L 12 0 L 12 8.078125 L 0 8.078125 Z M 0 0 "/>
<path style=" stroke:none;fill-rule:nonzero;fill:rgb(100%,100%,100%);fill-opacity:1;" d="M 1 0.347656 L 1.285156 1.179688 L 0.539062 0.664062 L 1.460938 0.664062 L 0.714844 1.179688 Z M 1 0.347656 "/>
<path style=" stroke:none;fill-rule:nonzero;fill:rgb(100%,100%,100%);fill-opacity:1;" d="M 1 1.960938 L 1.285156 2.796875 L 0.539062 2.28125 L 1.460938 2.28125 L 0.714844 2.796875 Z M 1 1.960938 "/>
<path style=" stroke:none;fill-rule:nonzero;fill:rgb(100%,100%,100%);fill-opacity:1;" d="M 1 3.578125 L 1.285156 4.410156 L 0.539062 3.894531 L 1.460938 3.894531 L 0.714844 4.410156 Z M 1 3.578125 "/>
<path style=" stroke:none;fill-rule:nonzero;fill:rgb(100%,100%,100%);fill-opacity:1;" d="M 1 5.191406 L 1.285156 6.027344 L 0.539062 5.511719 L 1.460938 5.511719 L 0.714844 6.027344 Z M 1 5.191406 "/>
<path style=" stroke:none;fill-rule:nonzero;fill:rgb(100%,100%,100%);fill-opacity:1;" d="M 1 6.808594 L 1.285156 7.644531 L 0.539062 7.125 L 1.460938 7.125 L 0.714844 7.644531 Z M 1 6.808594 "/>
<path style=" stroke:none;fill-rule:nonzero;fill:rgb(100%,100%,100%);fill-opacity:1;" d="M 2 1.152344 L 2.285156 1.988281 L 1.539062 1.472656 L 2.460938 1.472656 L 1.714844 1.988281 Z M 2 1.152344 "/>
<path style=" stroke:none;fill-rule:nonzero;fill:rgb(100%,100%,100%);fill-opacity:1;" d="M 2 2.769531 L 2.285156 3.605469 L 1.539062 3.089844 L 2.460938 3.089844 L 1.714844 3.605469 Z M 2 2.769531 "/>
<path style=" stroke:none;fill-rule:nonzero;fill:rgb(100%,100%,100%);fill-opacity:1;" d="M 2 4.382812 L 2.285156 5.21875 L 1.539062 4.703125 L 2.460938 4.703125 L 1.714844 5.21875 Z M 2 4.382812 "/>
<path style=" stroke:none;fill-rule:nonzero;fill:rgb(100%,100%,100%);fill-opacity:1;" d="M 2 6 L 2.285156 6.835938 L 1.539062 6.320312 L 2.460938 6.320312 L 1.714844 6.835938 Z M 2 6 "/>
<path style=" stroke:none;fill-rule:nonzero;fill:rgb(100%,100%,100%);fill-opacity:1;" d="M 3 0.347656 L 3.285156 1.179688 L 2.539062 0.664062 L 3.460938 0.664062 L 2.714844 1.179688 Z M 3 0.347656 "/>
<path style=" stroke:none;fill-rule:nonzero;fill:rgb(100%,100%,100%);fill-opacity:1;" d="M 3 1.960938 L 3.285156 2.796875 L 2.539062 2.28125 L 3.460938 2.28125 L 2.714844 2.796875 Z M 3 1.960938 "/>
<path style=" stroke:none;fill-rule:nonzero;fill:rgb(100%,100%,100%);fill-opacity:1;" d="M 3 3.578125 L 3.285156 4.410156 L 2.539062 3.894531 L 3.460938 3.894531 L 2.714844 4.410156 Z M 3 3.578125 "/>
<path style=" stroke:none;fill-rule:nonzero;fill:rgb(100%,100%,100%);fill-opacity:1;" d="M 3 5.191406 L 3.285156 6.027344 L 2.539062 5.511719 L 3.460938 5.511719 L 2.714844 6.027344 Z M 3 5.191406 "/>
<path style=" stroke:none;fill-rule:nonzero;fill:rgb(100%,100%,100%);fill-opacity:1;" d="M 3 6.808594 L 3.285156 7.644531 L 2.539062 7.125 L 3.460938 7.125 L 2.714844 7.644531 Z M 3 6.808594 "/>
<path style=" stroke:none;fill-rule:nonzero;fill:rgb(100%,100%,100%);fill-opacity:1;" d="M 4 1.152344 L 4.285156 1.988281 L 3.539062 1.472656 L 4.460938 1.472656 L 3.714844 1.988281 Z M 4 1.152344 "/>
<path style=" stroke:none;fill-rule:nonzero;fill:rgb(100%,100%,100%);fill-opacity:1;" d="M 4 2.769531 L 4.285156 3.605469 L 3.539062 3.089844 L 4.460938 3.089844 L 3.714844 3.605469 Z M 4 2.769531 "/>
<path style=" stroke:none;fill-rule:nonzero;fill:rgb(100%,100%,100%);fill-opacity:1;" d="M 4 4.382812 L 4.285156 5.21875 L 3.539062 4.703125 L 4.460938 4.703125 L 3.714844 5.21875 Z M 4 4.382812 "/>
<path style=" stroke:none;fill-rule:nonzero;fill:rgb(100%,100%,100%);fill-opacity:1;" d="M 4 6 L 4.285156 6.835938 L 3.539062 6.320312 L 4.460938 6.320312 L 3.714844 6.835938 Z M 4 6 "/>
<path style=" stroke:none;fill-rule:nonzero;fill:rgb(100%,100%,100%);fill-opacity:1;" d="M 5 0.347656 L 5.285156 1.179688 L 4.539062 0.664062 L 5.460938 0.664062 L 4.714844 1.179688 Z M 5 0.347656 "/>
<path style=" stroke:none;fill-rule:nonzero;fill:rgb(100%,100%,100%);fill-opacity:1;" d="M 5 1.960938 L 5.285156 2.796875 L 4.539062 2.28125 L 5.460938 2.28125 L 4.714844 2.796875 Z M 5 1.960938 "/>
<path style=" stroke:none;fill-rule:nonzero;fill:rgb(100%,100%,100%);fill-opacity:1;" d="M 5 3.578125 L 5.285156 4.410156 L 4.539062 3.894531 L 5.460938 3.894531 L 4.714844 4.410156 Z M 5 3.578125 "/>
<path style=" stroke:none;fill-rule:nonzero;fill:rgb(100%,100%,100%);fill-opacity:1;" d="M 5 5.191406 L 5.285156 6.027344 L 4.539062 5.511719 L 5.460938 5.511719 L 4.714844 6.027344 Z M 5 5.191406 "/>
<path style=" stroke:none;fill-rule:nonzero;fill:rgb(100%,100%,100%);fill-opacity:1;" d="M 5 6.808594 L 5.285156 7.644531 L 4.539062 7.125 L 5.460938 7.125 L 4.714844 7.644531 Z M 5 6.808594 "/>
<path style=" stroke:none;fill-rule:nonzero;fill:rgb(100%,100%,100%);fill-opacity:1;" d="M 6 1.152344 L 6.285156 1.988281 L 5.539062 1.472656 L 6.460938 1.472656 L 5.714844 1.988281 Z M 6 1.152344 "/>
<path style=" stroke:none;fill-rule:nonzero;fill:rgb(100%,100%,100%);fill-opacity:1;" d="M 6 2.769531 L 6.285156 3.605469 L 5.539062 3.089844 L 6.460938 3.089844 L 5.714844 3.605469 Z M 6 2.769531 "/>
<path style=" stroke:none;fill-rule:nonzero;fill:rgb(100%,100%,100%);fill-opacity:1;" d="M 6 4.382812 L 6.285156 5.21875 L 5.539062 4.703125 L 6.460938 4.703125 L 5.714844 5.21875 Z M 6 4.382812 "/>
<path style=" stroke:none;fill-rule:nonzero;fill:rgb(100%,100%,100%);fill-opacity:1;" d="M 6 6 L 6.285156 6.835938 L 5.539062 6.320312 L 6.460938 6.320312 L 5.714844 6.835938 Z M 6 6 "/>
<path style=" stroke:none;fill-rule:nonzero;fill:rgb(100%,100%,100%);fill-opacity:1;" d="M 7 0.347656 L 7.285156 1.179688 L 6.539062 0.664062 L 7.460938 0.664062 L 6.714844 1.179688 Z M 7 0.347656 "/>
<path style=" stroke:none;fill-rule:nonzero;fill:rgb(100%,100%,100%);fill-opacity:1;" d="M 7 1.960938 L 7.285156 2.796875 L 6.539062 2.28125 L 7.460938 2.28125 L 6.714844 2.796875 Z M 7 1.960938 "/>
<path style=" stroke:none;fill-rule:nonzero;fill:rgb(100%,100%,100%);fill-opacity:1;" d="M 7 3.578125 L 7.285156 4.410156 L 6.539062 3.894531 L 7.460938 3.894531 L 6.714844 4.410156 Z M 7 3.578125 "/>
<path style=" stroke:none;fill-rule:nonzero;fill:rgb(100%,100%,100%);fill-opacity:1;" d="M 7 5.191406 L 7.285156 6.027344 L 6.539062 5.511719 L 7.460938 5.511719 L 6.714844 6.027344 Z M 7 5.191406 "/>
<path style=" stroke:none;fill-rule:nonzero;fill:rgb(100%,100%,100%);fill-opacity:1;" d="M 7 6.808594 L 7.285156 7.644531 L 6.539062 7.125 L 7.460938 7.125 L 6.714844 7.644531 Z M 7 6.808594 "/>
<path style=" stroke:none;fill-rule:nonzero;fill:rgb(100%,100%,100%);fill-opacity:1;" d="M 8 1.152344 L 8.285156 1.988281 L 7.539062 1.472656 L 8.460938 1.472656 L 7.714844 1.988281 Z M 8 1.152344 "/>
<path style=" stroke:none;fill-rule:nonzero;fill:rgb(100%,100%,100%);fill-opacity:1;" d="M 8 2.769531 L 8.285156 3.605469 L 7.539062 3.089844 L 8.460938 3.089844 L 7.714844 3.605469 Z M 8 2.769531 "/>
<path style=" stroke:none;fill-rule:nonzero;fill:rgb(100%,100%,100%);fill-opacity:1;" d="M 8 4.382812 L 8.285156 5.21875 L 7.539062 4.703125 L 8.460938 4.703125 L 7.714844 5.21875 Z M 8 4.382812 "/>
<path style=" stroke:none;fill-rule:nonzero;fill:rgb(100%,100%,100%);fill-opacity:1;" d="M 8 6 L 8.285156 6.835938 L 7.539062 6.320312 L 8.460938 6.320312 L 7.714844 6.835938 Z M 8 6 "/>
<path style=" stroke:none;fill-rule:nonzero;fill:rgb(100%,100%,100%);fill-opacity:1;" d="M 9 0.347656 L 9.285156 1.179688 L 8.539062 0.664062 L 9.460938 0.664062 L 8.714844 1.179688 Z M 9 0.347656 "/>
<path style=" stroke:none;fill-rule:nonzero;fill:rgb(100%,100%,100%);fill-opacity:1;" d="M 9 1.960938 L 9.285156 2.796875 L 8.539062 2.28125 L 9.460938 2.28125 L 8.714844 2.796875 Z M 9 1.960938 "/>
<path style=" stroke:none;fill-rule:nonzero;fill:rgb(100%,100%,100%);fill-opacity:1;" d="M 9 3.578125 L 9.285156 4.410156 L 8.539062 3.894531 L 9.460938 3.894531 L 8.714844 4.410156 Z M 9 3.578125 "/>
<path style=" stroke:none;fill-rule:nonzero;fill:rgb(100%,100%,100%);fill-opacity:1;" d="M 9 5.191406 L 9.285156 6.027344 L 8.539062 5.511719 L 9.460938 5.511719 L 8.714844 6.027344 Z M 9 5.191406 "/>
<path style=" stroke:none;fill-rule:nonzero;fill:rgb(100%,100%,100%);fill-opacity:1;" d="M 9 6.808594 L 9.285156 7.644531 L 8.539062 7.125 L 9.460938 7.125 L 8.714844 7.644531 Z M 9 6.808594 "/>
<path style=" stroke:none;fill-rule:nonzero;fill:rgb(100%,100%,100%);fill-opacity:1;" d="M 10 1.152344 L 10.285156 1.988281 L 9.539062 1.472656 L 10.460938 1.472656 L 9.714844 1.988281 Z M 10 1.152344 "/>
<path style=" stroke:none;fill-rule:nonzero;fill:rgb(100%,100%,100%);fill-opacity:1;" d="M 10 2.769531 L 10.285156 3.605469 L 9.539062 3.089844 L 10.460938 3.089844 L 9.714844 3.605469 Z M 10 2.769531 "/>
<path style=" stroke:none;fill-rule:nonzero;fill:rgb(100%,100%,100%);fill-opacity:1;" d="M 10 4.382812 L 10.285156 5.21875 L 9.539062 4.703125 L 10.460938 4.703125 L 9.714844 5.21875 Z M 10 4.382812 "/>
<path style=" stroke:none;fill-rule:nonzero;fill:rgb(100%,100%,100%);fill-opacity:1;" d="M 10 6 L 10.285156 6.835938 L 9.539062 6.320312 L 10.460938 6.320312 L 9.714844 6.835938 Z M 10 6 "/>
<path style=" stroke:none;fill-rule:nonzero;fill:rgb(100%,100%,100%);fill-opacity:1;" d="M 11 0.347656 L 11.285156 1.179688 L 10.539062 0.664062 L 11.460938 0.664062 L 10.714844 1.179688 Z M 11 0.347656 "/>
<path style=" stroke:none;fill-rule:nonzero;fill:rgb(100%,100%,100%);fill-opacity:1;" d="M 11 1.960938 L 11.285156 2.796875 L 10.539062 2.28125 L 11.460938 2.28125 L 10.714844 2.796875 Z M 11 1.960938 "/>
<path style=" stroke:none;fill-rule:nonzero;fill:rgb(100%,100%,100%);fill-opacity:1;" d="M 11 3.578125 L 11.285156 4.410156 L 10.539062 3.894531 L 11.460938 3.894531 L 10.714844 4.410156 Z M 11 3.578125 "/>
<path style=" stroke:none;fill-rule:nonzero;fill:rgb(100%,100%,100%);fill-opacity:1;" d="M 11 5.191406 L 11.285156 6.027344 L 10.539062 5.511719 L 11.460938 5.511719 L 10.714844 6.027344 Z M 11 5.191406 "/>
<path style=" stroke:none;fill-rule:nonzero;fill:rgb(100%,100%,100%);fill-opacity:1;" d="M 11 6.808594 L 11.285156 7.644531 L 10.539062 7.125 L 11.460938 7.125 L 10.714844 7.644531 Z M 11 6.808594 "/>
</g>
</svg>
